<svg width="2800" height="1400" viewBox="0 0 2800 1400" fill="none" xmlns="http://www.w3.org/2000/svg">
<path d="M665.5 204.2C596.8 204.6 518.5 205.3 491.6 205.8L442.8 206.5L406.4 272.5L370 338.5L635.7 339C886.7 339.5 901.9 339.7 909 341.4C963.5 354.4 997.9 386.9 1008.1 435C1011.4 450.5 1011.4 476.9 1008.2 489C998.8 523.7 968 558.1 918.5 589.1C879.3 613.7 823.9 639 774.3 655.1C768.6 656.9 764 658.9 764 659.5C764 660 793.8 737.5 830.2 831.7L896.5 1003H1128H1359.5L1414.3 950.4C1444.5 921.4 1468.8 897.4 1468.3 897.1C1467.9 896.7 1367.2 895.3 1244.5 894.1C1121.9 892.9 1021.3 891.6 1020.9 891.2C1019.6 889.7 943.9 687.9 944.4 687.2C944.9 686.3 964.6 678.6 982 672.5C1034.1 654.1 1089.6 618.9 1127.9 580C1173.1 534.1 1208.7 476.3 1221 428.4C1225.9 409.5 1227.3 396.8 1226.7 377C1226.1 357.9 1224.9 350.6 1219.5 334.3C1203.7 286.8 1165.7 252.7 1103.5 230.2C1079.4 221.5 1041.1 210.7 1022.5 207.5C1003.4 204.2 859.7 202.8 665.5 204.2Z" fill="#CF2424"/>
<path d="M2173.5 286.6C2117.1 289.9 2087.2 293.4 2054.5 300.5C2012 309.7 1978.1 324.6 1957.8 342.9C1935.5 363.1 1920.3 405.8 1924 438C1926.8 462.9 1937.1 483.9 1955.8 502.8C1972.2 519.4 1984.9 527.4 2014.1 540C2064.3 561.5 2101.5 574.8 2168 594.9C2266.6 624.7 2310.1 646.5 2322 672.2C2328.9 687.2 2331.9 718.8 2327.7 734C2316.1 775.9 2271.9 798.7 2191.6 804.1C2180.6 804.8 2130.6 805.2 2050.3 805.3L1926 805.5V830.6V855.7L1983.2 856.3C2061.1 857.2 2175 857.1 2206 856C2233.4 855.1 2245.2 853.5 2267.8 847.9C2318.7 835.3 2361.1 810.7 2379.3 783.3C2394.8 760 2404.2 721.3 2401.1 694.1C2396.4 654.3 2373.3 622.6 2330.3 597C2306.8 583 2281.6 573.5 2237 562C2091.8 524.3 2005.5 488.3 1992.5 459.8C1988.7 451.5 1986 439.6 1985.3 428.4C1983 388.6 2010.9 361.6 2066 350.6C2090.4 345.7 2141.6 340.4 2187 338C2215.5 336.5 2284 335 2323.8 335H2357V313.7V292.3L2334.8 290.6C2322.5 289.7 2306 288.5 2298 287.9C2283.7 286.9 2185.2 285.9 2173.5 286.6Z" fill="#CB1313"/>
<path d="M1642.5 293.1C1437.5 301.7 1316.7 365.9 1276.6 487.4C1260 537.5 1257.4 601 1269.9 649C1286.9 714.5 1329 764.4 1398.1 800.9C1441.2 823.6 1500.1 840.9 1563.3 849.5C1600.4 854.5 1613.5 855.2 1670.6 855.7L1724.7 856.2L1725.3 841.8C1725.7 834 1726 823.6 1726 818.8V810.2L1657.3 809.7C1601.6 809.3 1586.3 808.9 1577 807.6C1504.4 797.5 1431.8 767.6 1390.3 730.8C1361.6 705.2 1329.1 654.1 1320.6 621.3C1318.2 612 1316.9 601.2 1317.6 595.9L1318.3 591H1522.1H1726V565.5V540H1524.5C1333.3 540 1323 539.9 1323 538.2C1323 537.3 1323.7 532.3 1324.5 527.2C1333.5 471.5 1384.8 411.3 1450.5 379C1475 367 1498.7 359 1527.3 353.1C1568.3 344.6 1604.1 341.6 1682.3 340.1C1705.2 339.7 1724.2 339.1 1724.4 338.9C1724.6 338.7 1725.1 328 1725.5 315.2L1726.2 292L1693.9 292.2C1676.1 292.2 1653 292.7 1642.5 293.1Z" fill="#CF1919"/>
<path d="M1793 574.5V856H1823.5H1854V574.5V293H1823.5H1793V574.5Z" fill="#C22626"/>
<path d="M685.2 426.7C682.5 434.9 637.2 567.6 584.6 721.7C532 875.8 489 1002.1 489 1002.4C489 1002.7 517 1003 551.3 1003H613.5L713.9 708.7C769.1 546.9 814.5 413.9 814.8 413.2C815.1 412.3 802.3 412 752.7 412H690.2L685.2 426.7Z" fill="#C11F1F"/>
<path d="M475.3 1051.1C443.7 1056.4 420.8 1095.3 420.6 1144C420.5 1159.7 421.8 1167 426.5 1176.5C436.4 1196.9 462.9 1202.8 487.8 1190.1C495.2 1186.3 498.7 1182.5 499.9 1176.9C501.4 1169.9 501.3 1166 499.5 1165.3C498.6 1165 495.5 1166.5 492 1168.9C481.7 1176.2 475.6 1178.4 466.5 1178.5C457.1 1178.5 452.2 1176.4 446.8 1170.1C440.8 1163 439.5 1157.7 439.5 1139.5C439.6 1122.1 441.1 1113.3 446.7 1099.1C458.4 1068.8 483.5 1059.3 503.8 1077.4C506.7 1079.9 509.7 1082 510.5 1082C512.7 1082 514.1 1078.5 514.7 1071.2C515.2 1064.9 515.1 1064.2 512.6 1061.3C507.7 1055.5 492.9 1049.8 483.6 1050.1C481.9 1050.2 478.2 1050.6 475.3 1051.1Z" fill="black"/>
<path d="M572.8 1051.5C554.5 1056.1 539.2 1070.8 530.8 1091.7C524.1 1108.5 521 1126 521 1146.9C521 1167.5 524.7 1178.9 534.1 1187.4C540.8 1193.4 548.2 1196.1 559.7 1196.8C571.4 1197.4 579.4 1195.9 588.9 1191.3C611 1180.4 625 1153.1 629.1 1113C632.2 1081.3 623.8 1060 605.2 1052.9C597.8 1050.1 581.1 1049.4 572.8 1051.5ZM596.7 1070.5C602.9 1073.3 607.3 1078.8 609.8 1086.9C614.3 1101.7 609.8 1137.5 601.3 1154.5C593 1171.1 581.6 1179.1 566.2 1179.2C553.1 1179.2 544.7 1173.2 540.9 1160.8C536.9 1148.2 539 1121.3 545.2 1102.2C554.5 1074.1 575.6 1061.1 596.7 1070.5Z" fill="black"/>
<path d="M1096.6 1051.5C1079.5 1055.9 1064.6 1069.3 1055.9 1088.5C1043.8 1115.3 1040.9 1159.1 1050 1177.1C1052.9 1182.6 1058.5 1188.6 1063.8 1191.7C1075.5 1198.6 1096.6 1198.8 1111.4 1192.1C1134.2 1181.8 1149.4 1152.4 1153 1111.7C1155.8 1079.5 1147 1059 1127.5 1052.5C1120.6 1050.1 1104.2 1049.6 1096.6 1051.5ZM1120.8 1070.6C1132.5 1076.2 1137.3 1091.3 1135 1115.1C1131.6 1148.8 1119.8 1171.1 1101.9 1177.5C1096.5 1179.5 1086 1179.7 1080.3 1178C1066.6 1173.8 1060.7 1158.5 1063 1133.2C1064.4 1117.8 1068.2 1102.4 1073.2 1092.3C1083.6 1071 1103 1062.2 1120.8 1070.6Z" fill="black"/>
<path d="M1732 1051.8C1723.9 1054.5 1720.8 1056.4 1715.6 1061.6C1707.3 1069.8 1703 1081.4 1703 1095C1703 1110.5 1707.5 1117.3 1725.7 1129.3C1739.8 1138.6 1742.2 1140.7 1744.5 1146.2C1749.5 1158.3 1740.9 1174.7 1727.5 1178.6C1717.9 1181.3 1708.4 1179 1698.7 1171.6C1690.9 1165.6 1688.5 1167 1687.4 1177.9C1686.5 1185.8 1687.9 1187.9 1697.4 1192.6C1703.8 1195.7 1706.1 1196.3 1713.8 1196.8C1719.3 1197.1 1724.8 1196.8 1728.1 1196C1750 1190.9 1765.1 1169.5 1763.8 1145.5C1763 1131.2 1758.6 1125.3 1740.5 1113.4C1727.6 1105 1724.4 1102.1 1721.8 1096.2C1717.7 1087.1 1722.8 1074.3 1732.2 1069.6C1740.9 1065.3 1749.4 1066.5 1759.1 1073.5C1761.8 1075.4 1764.7 1077 1765.5 1077C1767.7 1077 1769 1073.7 1769.7 1066.7C1770.2 1060.9 1770 1060.1 1767.9 1058C1760.5 1051 1743.4 1048 1732 1051.8Z" fill="black"/>
<path d="M1935 1051.6C1912 1056.5 1892.4 1076.8 1883.6 1104.8C1878.1 1122.3 1876.4 1144.7 1879.5 1159.2C1884.5 1183.1 1901.7 1197 1926 1197C1942.5 1196.9 1962.4 1189.9 1965.7 1183C1966.3 1181.6 1968.8 1166.9 1971.1 1150.3C1975.4 1120.7 1975.4 1120.1 1973.6 1118.1C1971.8 1116.1 1970.7 1116 1951.5 1116C1927.8 1116 1928.5 1115.7 1928.5 1125.9V1132.5L1942.8 1132.8C1956.9 1133.1 1957 1133.1 1956.5 1135.3C1956 1137.2 1951 1171.5 1951 1172.6C1951 1172.9 1948.4 1174.3 1945.3 1175.8C1940.2 1178.2 1938.3 1178.5 1929.5 1178.5C1920.6 1178.5 1918.9 1178.2 1914.4 1175.8C1905.6 1171.2 1899.4 1162 1896.9 1150C1895.3 1142.2 1896.3 1123.4 1898.9 1113.5C1903.3 1096.9 1912.6 1082.1 1923 1075.1C1931.7 1069.3 1937.4 1067.7 1947.8 1068.2C1957.7 1068.6 1965.1 1071.4 1972.7 1077.6C1975.1 1079.5 1977.8 1081 1978.8 1080.8C1980.9 1080.4 1982.9 1074.9 1982.9 1068.9C1983 1063 1980.9 1060.3 1973.1 1056.1C1962.3 1050.4 1948.3 1048.7 1935 1051.6Z" fill="black"/>
<path d="M2282.5 1051.1C2274.8 1052.7 2263.8 1058.4 2257.5 1064.2C2243.2 1077.3 2233.6 1099.7 2230 1128.2C2228.3 1142 2229.1 1161.7 2231.9 1170.2C2237.7 1188.1 2250.8 1197 2271.5 1197C2288.1 1197 2300.1 1192 2311.8 1180.2C2323.4 1168.5 2331.7 1149.3 2336.2 1124C2338.2 1112.3 2337.9 1086.9 2335.7 1079.5C2331.6 1066.1 2323.9 1057 2313.2 1052.9C2306.6 1050.4 2290.7 1049.5 2282.5 1051.1ZM2303.5 1069.5C2317.1 1075 2322.3 1091.9 2318.9 1119.5C2314.7 1154.2 2300.8 1175.6 2280.5 1178.8C2269.8 1180.5 2261.3 1178.2 2255.4 1171.8C2249.3 1165.4 2247 1157.5 2247 1142.8C2247 1116.5 2255.1 1090.8 2267.2 1078.3C2276.8 1068.5 2291.9 1064.8 2303.5 1069.5Z" fill="black"/>
<path d="M2394 1051.4C2378.6 1055.6 2367.9 1067.3 2364.5 1083.7C2362.5 1093 2362.6 1098.6 2365 1106.2C2367.8 1115.2 2372.9 1120.6 2388.2 1130.6C2403.2 1140.5 2406.5 1144.7 2406.3 1153.4C2406 1163.8 2401.3 1171.9 2392.8 1176.6C2382.8 1182 2369.2 1179.8 2358 1171C2355.9 1169.4 2353.3 1168 2352.2 1168C2349.6 1168 2348 1172.5 2348 1180.1C2348 1185.5 2348.2 1186 2351.8 1188.9C2363.3 1198.5 2386.7 1199.6 2400.8 1191.4C2415.4 1182.8 2424.3 1166.7 2424.4 1148.5C2424.6 1132.8 2418.7 1124.1 2400.6 1113.1C2389.6 1106.4 2385.5 1102.8 2382.9 1097.9C2377.5 1087.2 2384.4 1071.2 2395.8 1068C2403.8 1065.8 2410.1 1067.2 2418.8 1073C2422.1 1075.2 2425.4 1077 2426.3 1077C2428.3 1077 2430 1071.8 2430.3 1065C2430.5 1060.1 2430.3 1059.6 2427 1056.9C2419.9 1051 2404.7 1048.4 2394 1051.4Z" fill="black"/>
<path d="M1327.9 1051.6C1326.4 1051.9 1324.6 1052.9 1323.8 1053.8C1321.4 1056.6 1263 1189.9 1263 1192.5C1263 1194.5 1263.7 1195 1266.6 1195.6C1270.7 1196.3 1276.6 1195.6 1278.5 1194C1279.2 1193.5 1283 1185.1 1287.1 1175.5L1294.4 1158H1318.2C1336.6 1158 1342 1158.3 1342 1159.2C1342 1159.9 1343.1 1167.9 1344.5 1177C1347.2 1195.7 1347.4 1196 1355.7 1196C1362.4 1196 1365.4 1193.6 1364.5 1188.7C1364.2 1186.9 1359.5 1155.8 1354 1119.6C1348.5 1083.3 1343.7 1053.3 1343.2 1052.8C1342.2 1051.8 1331.5 1051 1327.9 1051.6ZM1335.1 1109.3C1337.7 1127 1339.6 1141.6 1339.5 1141.8C1339.4 1141.9 1330.7 1141.9 1320.2 1141.8L1301.1 1141.5L1315.2 1108.7C1323 1090.7 1329.6 1076.3 1329.9 1076.6C1330.2 1076.9 1332.6 1091.6 1335.1 1109.3Z" fill="black"/>
<path d="M2023.3 1051.6C2022.1 1051.9 2020.7 1052.7 2020.2 1053.3C2018.4 1055.4 2005.7 1145.5 2005.7 1156.5C2005.5 1170 2008.2 1178.8 2014.5 1185.8C2021 1193 2027.8 1196.1 2038.4 1196.7C2054.9 1197.8 2068.4 1192.7 2078.5 1181.8C2084.6 1175.3 2091 1163.1 2093.4 1153.5C2095.3 1145.9 2108.2 1057.4 2107.8 1054.7C2107.2 1050.4 2093.7 1050.1 2092 1054.4C2091.5 1055.5 2088.1 1077.1 2084.5 1102.4C2080.8 1128.5 2077.1 1150.9 2075.9 1154.4C2073.4 1161.9 2068.2 1169.9 2063.7 1173.4C2049.1 1184.6 2029.1 1180.1 2024.5 1164.6C2022 1156.2 2022.8 1146.1 2029.6 1099.1C2033.3 1073.3 2035.8 1053.4 2035.3 1052.9C2034.2 1051.8 2026.3 1051 2023.3 1051.6Z" fill="black"/>
<path d="M669.8 1053C668.8 1053.6 667.6 1054.9 667 1056C665.9 1058 647 1186.2 647 1191.6C647 1194.7 647.2 1194.9 651.4 1195.5C657.4 1196.4 661.9 1195.3 663 1192.7C663.5 1191.5 665.5 1178.8 667.5 1164.5C669.5 1150.2 671.3 1137 671.7 1135.2L672.2 1132H679.2C687.7 1132 692.3 1133.9 695.6 1138.9C698.9 1144 700.3 1149.4 704.5 1173C706.5 1184.3 708.6 1193.9 709.1 1194.5C710.8 1196.2 722.7 1195.7 724.6 1193.9C726.5 1192 726.2 1189.9 720.4 1160.3C716.7 1141.4 714.1 1133.5 710.3 1128.9C708.9 1127.3 707.9 1125.8 708.1 1125.6C708.3 1125.5 710.8 1123.9 713.7 1122.1C727.2 1113.6 734.9 1097.6 733.7 1080C733.1 1070.7 730.3 1064.2 724.8 1059.5C717.8 1053.6 713.9 1052.7 691.5 1052.3C678.4 1052.1 670.9 1052.3 669.8 1053ZM708 1071.5C713.4 1074.7 715.5 1079.3 715.4 1087.5C715.3 1099.9 708.1 1110.8 698.2 1113.8C692.4 1115.6 675 1115.4 675 1113.6C675 1112.9 676.4 1102.9 678 1091.5C679.7 1080.1 681 1070.3 681 1069.8C681 1069.2 685.4 1068.9 692.8 1069.1C702.3 1069.4 705.1 1069.9 708 1071.5Z" fill="black"/>
<path d="M773.2 1054.3C771.1 1056.5 770.1 1062.4 761.1 1124.6C755.7 1161.9 751.4 1193 751.7 1193.7C752 1194.3 753.5 1195.2 755.2 1195.5C758.6 1196.3 766.7 1195.3 767.5 1194.1C767.7 1193.6 769.8 1180.9 772 1165.9C774.2 1150.8 776.2 1137 776.5 1135.2L777.1 1132H784.1C794.3 1132 798.9 1135 802.9 1144.1C804.1 1146.6 806.8 1158.7 808.9 1171C811.1 1183.3 813.3 1193.7 813.9 1194.3C815.4 1195.8 824.1 1196.3 827.3 1195.1C829.7 1194.2 830 1193.5 830 1189.8C830 1186 825 1157.4 822.1 1144.7C820.5 1137.8 818.4 1133.1 815 1128.9L812.1 1125.3L816.3 1123.4C822.2 1120.7 830.6 1112.1 833.6 1105.6C839.6 1092.5 840.3 1077.3 835.4 1067.3C832.6 1061.5 829 1058.2 821.4 1054.8C816.9 1052.8 814.7 1052.5 796 1052.2L775.5 1051.8L773.2 1054.3ZM813.3 1071.8C818.3 1075 820.3 1079.1 820.3 1086.5C820.4 1098.5 814.8 1108.3 805.6 1112.6C801.3 1114.6 798.9 1115 789.9 1115H779.3L782.6 1092.7C784.5 1080.5 786 1070.1 786 1069.6C786 1069.2 791.3 1068.9 797.8 1069.1C808 1069.5 810 1069.8 813.3 1071.8Z" fill="black"/>
<path d="M878 1054C876.9 1055.1 875.8 1057 875.5 1058.2C874.3 1064 857 1185.7 857 1188.9C857 1190.9 857.5 1193.1 858.2 1193.8C859.1 1194.7 867.4 1195 889.6 1195C924.5 1195 922.5 1195.6 922.5 1185.1V1178.5L898.7 1178.2L874.9 1178L875.5 1174.7C876.1 1171.5 882 1130.1 882 1129.4C882 1129.2 891 1129 902 1129C921.6 1129 922 1129 923.4 1126.7C924.2 1125.5 925.2 1122.4 925.5 1119.7C926.7 1112 926.7 1112 904.4 1112C888.5 1112 885 1111.7 885 1110.6C885 1108.9 889.9 1074.3 890.5 1071.2L891 1069H914.5C935.8 1069 938 1068.8 938.9 1067.2C940.3 1064.6 941.3 1056.5 940.5 1054.1C939.9 1052 939.5 1052 909.9 1052C881.5 1052 879.9 1052.1 878 1054Z" fill="black"/>
<path d="M958.6 1054.2C956.9 1056.9 955.7 1065 956.6 1067.3C957.1 1068.8 959.2 1069 974.1 1069C983.4 1069 991 1069.4 991 1069.9C991 1070.6 974.5 1185.4 973.7 1190.7C973 1194.6 974.5 1195.5 981.4 1195.5C985 1195.5 988.4 1195 989 1194.4C989.8 1193.6 1007.9 1074.9 1008 1069.7C1008 1069.3 1015.9 1069 1025.5 1069H1042.9L1044 1065.2C1044.7 1063.2 1045 1059.5 1044.8 1057L1044.5 1052.5L1002.3 1052.2L960.1 1052L958.6 1054.2Z" fill="black"/>
<path d="M1192.2 1054.3C1190.3 1056.3 1189 1063.9 1180.5 1122.5C1175.3 1158.8 1170.8 1189.4 1170.5 1190.5C1169.7 1194.4 1171.5 1195.5 1178.4 1195.5C1182 1195.5 1185.4 1195 1186 1194.4C1186.7 1193.7 1188.9 1180.9 1191.1 1165.9C1193.2 1150.8 1195.2 1137 1195.5 1135.2L1196.1 1132H1203.3C1210.9 1132 1215.3 1133.7 1219.1 1138.3C1222 1141.7 1224.7 1151.7 1228.5 1173.4C1230.4 1184.4 1232.5 1193.9 1233 1194.4C1233.6 1195 1237 1195.5 1240.6 1195.5C1246 1195.5 1247.4 1195.1 1248.6 1193.5C1250.2 1191.3 1250.4 1192.7 1244.9 1163.6C1240.5 1140.8 1238.6 1134.5 1234.2 1129.1L1231.3 1125.4L1235.3 1123.5C1253.4 1114.7 1263.1 1087.1 1254.9 1068.1C1252.6 1062.5 1249.2 1059.1 1243.5 1056.1C1237.3 1052.9 1230.2 1052 1211.5 1052C1194.9 1052 1194.3 1052.1 1192.2 1054.3ZM1231.8 1071.3C1238.2 1074.8 1241 1083.2 1238.9 1093.1C1236.7 1103.3 1232.4 1109.1 1224 1112.9C1220.4 1114.5 1217.4 1115 1209.3 1115C1199.9 1115 1199 1114.8 1199 1113.1C1199 1112.1 1200.4 1101.9 1202 1090.5C1203.7 1079.1 1205 1069.5 1205 1069.3C1205 1069 1210.3 1069 1216.8 1069.2C1225.5 1069.5 1229.3 1070 1231.8 1071.3Z" fill="black"/>
<path d="M1457.1 1053.7C1455.9 1054.7 1454.5 1057.3 1454 1059.5C1453.6 1061.7 1449 1092.2 1443.9 1127.3C1435.1 1188.8 1434.8 1191.1 1436.5 1193C1438.2 1194.9 1439.7 1195 1456.1 1195C1477.2 1195 1486 1193.6 1496.7 1188.4C1505.6 1184.1 1516.4 1173.9 1521.9 1164.6C1526.7 1156.6 1531.5 1143.4 1534.1 1131C1537.1 1116.9 1537.4 1093.5 1534.7 1084.5C1529.2 1066.7 1519 1057 1502.1 1053.4C1497.9 1052.5 1489.1 1052 1477.4 1052C1461.6 1052 1458.9 1052.2 1457.1 1053.7ZM1501.7 1072.6C1508.4 1076 1513.9 1082.6 1516.5 1090.4C1519.1 1098.3 1519.6 1112 1517.5 1124.1C1514.2 1144 1508.7 1156.8 1499.8 1165.9C1490.7 1174.9 1481.7 1178 1463.9 1178C1455.5 1178 1454 1177.8 1454 1176.4C1454 1175.5 1457.4 1151.6 1461.5 1123.2C1465.6 1094.8 1469 1070.9 1469 1070.2C1469 1069 1471.3 1068.8 1482.5 1069.2C1494.9 1069.6 1496.4 1069.9 1501.7 1072.6Z" fill="black"/>
<path d="M1575 1054C1573.9 1055.1 1572.8 1057 1572.5 1058.2C1571.3 1063.7 1554 1185.6 1554 1188.9C1554 1190.9 1554.5 1193.1 1555.2 1193.8C1556.1 1194.7 1564.4 1195 1586.6 1195C1621.5 1195 1619.5 1195.6 1619.5 1185.1V1178.5L1595.6 1178.2L1571.8 1178L1572.4 1174.7C1572.9 1171.7 1579 1130.2 1579 1129.4C1579 1129.2 1588 1129 1599 1129C1618.6 1129 1619 1129 1620.4 1126.7C1621.2 1125.5 1622.2 1122.4 1622.5 1119.7C1623.7 1112 1623.7 1112 1601.4 1112C1583.8 1112 1582 1111.8 1582 1110.3C1582 1108.4 1586.8 1074.9 1587.6 1071.2L1588 1069H1611.5C1632.8 1069 1635 1068.8 1635.9 1067.2C1637.3 1064.6 1638.3 1056.5 1637.5 1054.1C1636.9 1052 1636.5 1052 1606.9 1052C1578.5 1052 1576.9 1052.1 1575 1054Z" fill="black"/>
<path d="M1807.2 1054.3C1805.2 1056.4 1804 1063.5 1795.5 1122C1790.3 1158 1786 1188.4 1786 1189.6C1786 1194.9 1786.7 1195 1819 1195H1849L1850.4 1192.7C1852.3 1189.6 1853.2 1182.3 1852 1180C1851 1178.1 1849.8 1178 1827.6 1178H1804.4L1807.9 1153.5L1811.3 1129H1831.1C1847.4 1129 1851.1 1128.7 1852.4 1127.5C1854.2 1125.7 1855.5 1118 1854.6 1114.5L1854 1112H1834C1823 1112 1814 1111.8 1814 1111.6C1814 1111.4 1815.4 1101.9 1817 1090.5C1818.7 1079.1 1820 1069.6 1820 1069.4C1820 1069.2 1830.6 1069 1843.6 1069H1867.1L1868.6 1065.4C1869.4 1063.4 1870 1059.7 1869.8 1057.2L1869.5 1052.5L1839.4 1052.2L1809.4 1052L1807.2 1054.3Z" fill="black"/>
<path d="M2144.7 1054.2C2142.1 1056.5 2141.9 1057.7 2132.5 1122.3C2127.3 1158.6 2123 1189.7 2123 1191.5C2123 1194.5 2123.3 1194.8 2126.6 1195.5C2130.7 1196.2 2137.7 1195.3 2138.6 1193.9C2139.1 1193.1 2147.9 1135.6 2148 1132.7C2148 1132.3 2151.2 1132 2155 1132C2166.9 1132 2171.9 1135.9 2175.4 1148C2176.3 1151 2178.6 1162.5 2180.5 1173.5C2182.5 1184.5 2184.4 1193.8 2184.9 1194.3C2186.2 1195.6 2192.6 1196.3 2196.4 1195.6C2202.5 1194.4 2202.6 1193.4 2198 1168.8C2193 1142.4 2191 1135.5 2186.6 1129.7L2183.3 1125.4L2187.3 1123.5C2198.2 1118.2 2206.7 1105.8 2209 1091.9C2212.2 1073.2 2206 1059.5 2192.1 1054.4C2188.5 1053.1 2182.9 1052.6 2167.4 1052.2C2147.5 1051.8 2147.3 1051.8 2144.7 1054.2ZM2184 1071.5C2189.4 1074.7 2191.5 1079.3 2191.4 1087.5C2191.3 1096.5 2188.3 1103.7 2182.4 1108.9C2176.9 1113.8 2172.4 1115 2160.6 1115C2152.1 1115 2151 1114.8 2151 1113.2C2151 1112.3 2152.4 1102.5 2154 1091.5C2155.6 1080.5 2157 1070.9 2157 1070.1C2157 1069.1 2159.4 1068.9 2168.8 1069.1C2178.3 1069.4 2181.1 1069.9 2184 1071.5Z" fill="black"/>
<mask id="mask0" mask-type="alpha" maskUnits="userSpaceOnUse" x="370" y="203" width="2061" height="994">
<path d="M665.5 203.54C596.8 203.94 518.5 204.64 491.6 205.14L442.8 205.84L406.4 271.84L370 337.84L635.7 338.34C886.7 338.84 901.9 339.04 909 340.74C963.5 353.74 997.9 386.24 1008.1 434.34C1011.4 449.84 1011.4 476.24 1008.2 488.34C998.8 523.04 968 557.44 918.5 588.44C879.3 613.04 823.9 638.34 774.3 654.44C768.6 656.24 764 658.24 764 658.84C764 659.34 793.8 736.84 830.2 831.04L896.5 1002.34H1128H1359.5L1414.3 949.74C1444.5 920.74 1468.8 896.74 1468.3 896.44C1467.9 896.04 1367.2 894.64 1244.5 893.44C1121.9 892.24 1021.3 890.94 1020.9 890.54C1019.6 889.04 943.9 687.24 944.4 686.54C944.9 685.64 964.6 677.94 982 671.84C1034.1 653.44 1089.6 618.24 1127.9 579.34C1173.1 533.44 1208.7 475.64 1221 427.74C1225.9 408.84 1227.3 396.14 1226.7 376.34C1226.1 357.24 1224.9 349.94 1219.5 333.64C1203.7 286.14 1165.7 252.04 1103.5 229.54C1079.4 220.84 1041.1 210.04 1022.5 206.84C1003.4 203.54 859.7 202.14 665.5 203.54Z" fill="#BA0F0F"/>
<path d="M2173.5 285.94C2117.1 289.24 2087.2 292.74 2054.5 299.84C2012 309.04 1978.1 323.94 1957.8 342.24C1935.5 362.44 1920.3 405.14 1924 437.34C1926.8 462.24 1937.1 483.24 1955.8 502.14C1972.2 518.74 1984.9 526.74 2014.1 539.34C2064.3 560.84 2101.5 574.14 2168 594.24C2266.6 624.04 2310.1 645.84 2322 671.54C2328.9 686.54 2331.9 718.14 2327.7 733.34C2316.1 775.24 2271.9 798.04 2191.6 803.44C2180.6 804.14 2130.6 804.54 2050.3 804.64L1926 804.84V829.94V855.04L1983.2 855.64C2061.1 856.54 2175 856.44 2206 855.34C2233.4 854.44 2245.2 852.84 2267.8 847.24C2318.7 834.64 2361.1 810.04 2379.3 782.64C2394.8 759.34 2404.2 720.64 2401.1 693.44C2396.4 653.64 2373.3 621.94 2330.3 596.34C2306.8 582.34 2281.6 572.84 2237 561.34C2091.8 523.64 2005.5 487.64 1992.5 459.14C1988.7 450.84 1986 438.94 1985.3 427.74C1983 387.94 2010.9 360.94 2066 349.94C2090.4 345.04 2141.6 339.74 2187 337.34C2215.5 335.84 2284 334.34 2323.8 334.34H2357V313.04V291.64L2334.8 289.94C2322.5 289.04 2306 287.84 2298 287.24C2283.7 286.24 2185.2 285.24 2173.5 285.94Z" fill="#CB1313"/>
<path d="M1642.5 292.44C1437.5 301.04 1316.7 365.24 1276.6 486.74C1260 536.84 1257.4 600.34 1269.9 648.34C1286.9 713.84 1329 763.74 1398.1 800.24C1441.2 822.94 1500.1 840.24 1563.3 848.84C1600.4 853.84 1613.5 854.54 1670.6 855.04L1724.7 855.54L1725.3 841.14C1725.7 833.34 1726 822.94 1726 818.14V809.54L1657.3 809.04C1601.6 808.64 1586.3 808.24 1577 806.94C1504.4 796.84 1431.8 766.94 1390.3 730.14C1361.6 704.54 1329.1 653.44 1320.6 620.64C1318.2 611.34 1316.9 600.54 1317.6 595.24L1318.3 590.34H1522.1H1726V564.84V539.34H1524.5C1333.3 539.34 1323 539.24 1323 537.54C1323 536.64 1323.7 531.64 1324.5 526.54C1333.5 470.84 1384.8 410.64 1450.5 378.34C1475 366.34 1498.7 358.34 1527.3 352.44C1568.3 343.94 1604.1 340.94 1682.3 339.44C1705.2 339.04 1724.2 338.44 1724.4 338.24C1724.6 338.04 1725.1 327.34 1725.5 314.54L1726.2 291.34L1693.9 291.54C1676.1 291.54 1653 292.04 1642.5 292.44Z" fill="#CF1919"/>
<path d="M1793 573.84V855.34H1823.5H1854V573.84V292.34H1823.5H1793V573.84Z" fill="#C22626"/>
<path d="M685.2 426.04C682.5 434.24 637.2 566.94 584.6 721.04C532 875.14 489 1001.44 489 1001.74C489 1002.04 517 1002.34 551.3 1002.34H613.5L713.9 708.04C769.1 546.24 814.5 413.24 814.8 412.54C815.1 411.64 802.3 411.34 752.7 411.34H690.2L685.2 426.04Z" fill="#C11F1F"/>
<path d="M475.3 1050.44C443.7 1055.74 420.8 1094.64 420.6 1143.34C420.5 1159.04 421.8 1166.34 426.5 1175.84C436.4 1196.24 462.9 1202.14 487.8 1189.44C495.2 1185.64 498.7 1181.84 499.9 1176.24C501.4 1169.24 501.3 1165.34 499.5 1164.64C498.6 1164.34 495.5 1165.84 492 1168.24C481.7 1175.54 475.6 1177.74 466.5 1177.84C457.1 1177.84 452.2 1175.74 446.8 1169.44C440.8 1162.34 439.5 1157.04 439.5 1138.84C439.6 1121.44 441.1 1112.64 446.7 1098.44C458.4 1068.14 483.5 1058.64 503.8 1076.74C506.7 1079.24 509.7 1081.34 510.5 1081.34C512.7 1081.34 514.1 1077.84 514.7 1070.54C515.2 1064.24 515.1 1063.54 512.6 1060.64C507.7 1054.84 492.9 1049.14 483.6 1049.44C481.9 1049.54 478.2 1049.94 475.3 1050.44Z" fill="black"/>
<path d="M572.8 1050.84C554.5 1055.44 539.2 1070.14 530.8 1091.04C524.1 1107.84 521 1125.34 521 1146.24C521 1166.84 524.7 1178.24 534.1 1186.74C540.8 1192.74 548.2 1195.44 559.7 1196.14C571.4 1196.74 579.4 1195.24 588.9 1190.64C611 1179.74 625 1152.44 629.1 1112.34C632.2 1080.64 623.8 1059.34 605.2 1052.24C597.8 1049.44 581.1 1048.74 572.8 1050.84ZM596.7 1069.84C602.9 1072.64 607.3 1078.14 609.8 1086.24C614.3 1101.04 609.8 1136.84 601.3 1153.84C593 1170.44 581.6 1178.44 566.2 1178.54C553.1 1178.54 544.7 1172.54 540.9 1160.14C536.9 1147.54 539 1120.64 545.2 1101.54C554.5 1073.44 575.6 1060.44 596.7 1069.84Z" fill="black"/>
<path d="M1096.6 1050.84C1079.5 1055.24 1064.6 1068.64 1055.9 1087.84C1043.8 1114.64 1040.9 1158.44 1050 1176.44C1052.9 1181.94 1058.5 1187.94 1063.8 1191.04C1075.5 1197.94 1096.6 1198.14 1111.4 1191.44C1134.2 1181.14 1149.4 1151.74 1153 1111.04C1155.8 1078.84 1147 1058.34 1127.5 1051.84C1120.6 1049.44 1104.2 1048.94 1096.6 1050.84ZM1120.8 1069.94C1132.5 1075.54 1137.3 1090.64 1135 1114.44C1131.6 1148.14 1119.8 1170.44 1101.9 1176.84C1096.5 1178.84 1086 1179.04 1080.3 1177.34C1066.6 1173.14 1060.7 1157.84 1063 1132.54C1064.4 1117.14 1068.2 1101.74 1073.2 1091.64C1083.6 1070.34 1103 1061.54 1120.8 1069.94Z" fill="black"/>
<path d="M1732 1051.14C1723.9 1053.84 1720.8 1055.74 1715.6 1060.94C1707.3 1069.14 1703 1080.74 1703 1094.34C1703 1109.84 1707.5 1116.64 1725.7 1128.64C1739.8 1137.94 1742.2 1140.04 1744.5 1145.54C1749.5 1157.64 1740.9 1174.04 1727.5 1177.94C1717.9 1180.64 1708.4 1178.34 1698.7 1170.94C1690.9 1164.94 1688.5 1166.34 1687.4 1177.24C1686.5 1185.14 1687.9 1187.24 1697.4 1191.94C1703.8 1195.04 1706.1 1195.64 1713.8 1196.14C1719.3 1196.44 1724.8 1196.14 1728.1 1195.34C1750 1190.24 1765.1 1168.84 1763.8 1144.84C1763 1130.54 1758.6 1124.64 1740.5 1112.74C1727.6 1104.34 1724.4 1101.44 1721.8 1095.54C1717.7 1086.44 1722.8 1073.64 1732.2 1068.94C1740.9 1064.64 1749.4 1065.84 1759.1 1072.84C1761.8 1074.74 1764.7 1076.34 1765.5 1076.34C1767.7 1076.34 1769 1073.04 1769.7 1066.04C1770.2 1060.24 1770 1059.44 1767.9 1057.34C1760.5 1050.34 1743.4 1047.34 1732 1051.14Z" fill="black"/>
<path d="M1935 1050.94C1912 1055.84 1892.4 1076.14 1883.6 1104.14C1878.1 1121.64 1876.4 1144.04 1879.5 1158.54C1884.5 1182.44 1901.7 1196.34 1926 1196.34C1942.5 1196.24 1962.4 1189.24 1965.7 1182.34C1966.3 1180.94 1968.8 1166.24 1971.1 1149.64C1975.4 1120.04 1975.4 1119.44 1973.6 1117.44C1971.8 1115.44 1970.7 1115.34 1951.5 1115.34C1927.8 1115.34 1928.5 1115.04 1928.5 1125.24V1131.84L1942.8 1132.14C1956.9 1132.44 1957 1132.44 1956.5 1134.64C1956 1136.54 1951 1170.84 1951 1171.94C1951 1172.24 1948.4 1173.64 1945.3 1175.14C1940.2 1177.54 1938.3 1177.84 1929.5 1177.84C1920.6 1177.84 1918.9 1177.54 1914.4 1175.14C1905.6 1170.54 1899.4 1161.34 1896.9 1149.34C1895.3 1141.54 1896.3 1122.74 1898.9 1112.84C1903.3 1096.24 1912.6 1081.44 1923 1074.44C1931.7 1068.64 1937.4 1067.04 1947.8 1067.54C1957.7 1067.94 1965.1 1070.74 1972.7 1076.94C1975.1 1078.84 1977.8 1080.34 1978.8 1080.14C1980.9 1079.74 1982.9 1074.24 1982.9 1068.24C1983 1062.34 1980.9 1059.64 1973.1 1055.44C1962.3 1049.74 1948.3 1048.04 1935 1050.94Z" fill="black"/>
<path d="M2282.5 1050.44C2274.8 1052.04 2263.8 1057.74 2257.5 1063.54C2243.2 1076.64 2233.6 1099.04 2230 1127.54C2228.3 1141.34 2229.1 1161.04 2231.9 1169.54C2237.7 1187.44 2250.8 1196.34 2271.5 1196.34C2288.1 1196.34 2300.1 1191.34 2311.8 1179.54C2323.4 1167.84 2331.7 1148.64 2336.2 1123.34C2338.2 1111.64 2337.9 1086.24 2335.7 1078.84C2331.6 1065.44 2323.9 1056.34 2313.2 1052.24C2306.6 1049.74 2290.7 1048.84 2282.5 1050.44ZM2303.5 1068.84C2317.1 1074.34 2322.3 1091.24 2318.9 1118.84C2314.7 1153.54 2300.8 1174.94 2280.5 1178.14C2269.8 1179.84 2261.3 1177.54 2255.4 1171.14C2249.3 1164.74 2247 1156.84 2247 1142.14C2247 1115.84 2255.1 1090.14 2267.2 1077.64C2276.8 1067.84 2291.9 1064.14 2303.5 1068.84Z" fill="black"/>
<path d="M2394 1050.74C2378.6 1054.94 2367.9 1066.64 2364.5 1083.04C2362.5 1092.34 2362.6 1097.94 2365 1105.54C2367.8 1114.54 2372.9 1119.94 2388.2 1129.94C2403.2 1139.84 2406.5 1144.04 2406.3 1152.74C2406 1163.14 2401.3 1171.24 2392.8 1175.94C2382.8 1181.34 2369.2 1179.14 2358 1170.34C2355.9 1168.74 2353.3 1167.34 2352.2 1167.34C2349.6 1167.34 2348 1171.84 2348 1179.44C2348 1184.84 2348.2 1185.34 2351.8 1188.24C2363.3 1197.84 2386.7 1198.94 2400.8 1190.74C2415.4 1182.14 2424.3 1166.04 2424.4 1147.84C2424.6 1132.14 2418.7 1123.44 2400.6 1112.44C2389.6 1105.74 2385.5 1102.14 2382.9 1097.24C2377.5 1086.54 2384.4 1070.54 2395.8 1067.34C2403.8 1065.14 2410.1 1066.54 2418.8 1072.34C2422.1 1074.54 2425.4 1076.34 2426.3 1076.34C2428.3 1076.34 2430 1071.14 2430.3 1064.34C2430.5 1059.44 2430.3 1058.94 2427 1056.24C2419.9 1050.34 2404.7 1047.74 2394 1050.74Z" fill="black"/>
<path d="M1327.9 1050.94C1326.4 1051.24 1324.6 1052.24 1323.8 1053.14C1321.4 1055.94 1263 1189.24 1263 1191.84C1263 1193.84 1263.7 1194.34 1266.6 1194.94C1270.7 1195.64 1276.6 1194.94 1278.5 1193.34C1279.2 1192.84 1283 1184.44 1287.1 1174.84L1294.4 1157.34H1318.2C1336.6 1157.34 1342 1157.64 1342 1158.54C1342 1159.24 1343.1 1167.24 1344.5 1176.34C1347.2 1195.04 1347.4 1195.34 1355.7 1195.34C1362.4 1195.34 1365.4 1192.94 1364.5 1188.04C1364.2 1186.24 1359.5 1155.14 1354 1118.94C1348.5 1082.64 1343.7 1052.64 1343.2 1052.14C1342.2 1051.14 1331.5 1050.34 1327.9 1050.94ZM1335.1 1108.64C1337.7 1126.34 1339.6 1140.94 1339.5 1141.14C1339.4 1141.24 1330.7 1141.24 1320.2 1141.14L1301.1 1140.84L1315.2 1108.04C1323 1090.04 1329.6 1075.64 1329.9 1075.94C1330.2 1076.24 1332.6 1090.94 1335.1 1108.64Z" fill="black"/>
<path d="M2023.3 1050.94C2022.1 1051.24 2020.7 1052.04 2020.2 1052.64C2018.4 1054.74 2005.7 1144.84 2005.7 1155.84C2005.5 1169.34 2008.2 1178.14 2014.5 1185.14C2021 1192.34 2027.8 1195.44 2038.4 1196.04C2054.9 1197.14 2068.4 1192.04 2078.5 1181.14C2084.6 1174.64 2091 1162.44 2093.4 1152.84C2095.3 1145.24 2108.2 1056.74 2107.8 1054.04C2107.2 1049.74 2093.7 1049.44 2092 1053.74C2091.5 1054.84 2088.1 1076.44 2084.5 1101.74C2080.8 1127.84 2077.1 1150.24 2075.9 1153.74C2073.4 1161.24 2068.2 1169.24 2063.7 1172.74C2049.1 1183.94 2029.1 1179.44 2024.5 1163.94C2022 1155.54 2022.8 1145.44 2029.6 1098.44C2033.3 1072.64 2035.8 1052.74 2035.3 1052.24C2034.2 1051.14 2026.3 1050.34 2023.3 1050.94Z" fill="black"/>
<path d="M669.8 1052.34C668.8 1052.94 667.6 1054.24 667 1055.34C665.9 1057.34 647 1185.54 647 1190.94C647 1194.04 647.2 1194.24 651.4 1194.84C657.4 1195.74 661.9 1194.64 663 1192.04C663.5 1190.84 665.5 1178.14 667.5 1163.84C669.5 1149.54 671.3 1136.34 671.7 1134.54L672.2 1131.34H679.2C687.7 1131.34 692.3 1133.24 695.6 1138.24C698.9 1143.34 700.3 1148.74 704.5 1172.34C706.5 1183.64 708.6 1193.24 709.1 1193.84C710.8 1195.54 722.7 1195.04 724.6 1193.24C726.5 1191.34 726.2 1189.24 720.4 1159.64C716.7 1140.74 714.1 1132.84 710.3 1128.24C708.9 1126.64 707.9 1125.14 708.1 1124.94C708.3 1124.84 710.8 1123.24 713.7 1121.44C727.2 1112.94 734.9 1096.94 733.7 1079.34C733.1 1070.04 730.3 1063.54 724.8 1058.84C717.8 1052.94 713.9 1052.04 691.5 1051.64C678.4 1051.44 670.9 1051.64 669.8 1052.34ZM708 1070.84C713.4 1074.04 715.5 1078.64 715.4 1086.84C715.3 1099.24 708.1 1110.14 698.2 1113.14C692.4 1114.94 675 1114.74 675 1112.94C675 1112.24 676.4 1102.24 678 1090.84C679.7 1079.44 681 1069.64 681 1069.14C681 1068.54 685.4 1068.24 692.8 1068.44C702.3 1068.74 705.1 1069.24 708 1070.84Z" fill="black"/>
<path d="M773.2 1053.64C771.1 1055.84 770.1 1061.74 761.1 1123.94C755.7 1161.24 751.4 1192.34 751.7 1193.04C752 1193.64 753.5 1194.54 755.2 1194.84C758.6 1195.64 766.7 1194.64 767.5 1193.44C767.7 1192.94 769.8 1180.24 772 1165.24C774.2 1150.14 776.2 1136.34 776.5 1134.54L777.1 1131.34H784.1C794.3 1131.34 798.9 1134.34 802.9 1143.44C804.1 1145.94 806.8 1158.04 808.9 1170.34C811.1 1182.64 813.3 1193.04 813.9 1193.64C815.4 1195.14 824.1 1195.64 827.3 1194.44C829.7 1193.54 830 1192.84 830 1189.14C830 1185.34 825 1156.74 822.1 1144.04C820.5 1137.14 818.4 1132.44 815 1128.24L812.1 1124.64L816.3 1122.74C822.2 1120.04 830.6 1111.44 833.6 1104.94C839.6 1091.84 840.3 1076.64 835.4 1066.64C832.6 1060.84 829 1057.54 821.4 1054.14C816.9 1052.14 814.7 1051.84 796 1051.54L775.5 1051.14L773.2 1053.64ZM813.3 1071.14C818.3 1074.34 820.3 1078.44 820.3 1085.84C820.4 1097.84 814.8 1107.64 805.6 1111.94C801.3 1113.94 798.9 1114.34 789.9 1114.34H779.3L782.6 1092.04C784.5 1079.84 786 1069.44 786 1068.94C786 1068.54 791.3 1068.24 797.8 1068.44C808 1068.84 810 1069.14 813.3 1071.14Z" fill="black"/>
<path d="M878 1053.34C876.9 1054.44 875.8 1056.34 875.5 1057.54C874.3 1063.34 857 1185.04 857 1188.24C857 1190.24 857.5 1192.44 858.2 1193.14C859.1 1194.04 867.4 1194.34 889.6 1194.34C924.5 1194.34 922.5 1194.94 922.5 1184.44V1177.84L898.7 1177.54L874.9 1177.34L875.5 1174.04C876.1 1170.84 882 1129.44 882 1128.74C882 1128.54 891 1128.34 902 1128.34C921.6 1128.34 922 1128.34 923.4 1126.04C924.2 1124.84 925.2 1121.74 925.5 1119.04C926.7 1111.34 926.7 1111.34 904.4 1111.34C888.5 1111.34 885 1111.04 885 1109.94C885 1108.24 889.9 1073.64 890.5 1070.54L891 1068.34H914.5C935.8 1068.34 938 1068.14 938.9 1066.54C940.3 1063.94 941.3 1055.84 940.5 1053.44C939.9 1051.34 939.5 1051.34 909.9 1051.34C881.5 1051.34 879.9 1051.44 878 1053.34Z" fill="black"/>
<path d="M958.6 1053.54C956.9 1056.24 955.7 1064.34 956.6 1066.64C957.1 1068.14 959.2 1068.34 974.1 1068.34C983.4 1068.34 991 1068.74 991 1069.24C991 1069.94 974.5 1184.74 973.7 1190.04C973 1193.94 974.5 1194.84 981.4 1194.84C985 1194.84 988.4 1194.34 989 1193.74C989.8 1192.94 1007.9 1074.24 1008 1069.04C1008 1068.64 1015.9 1068.34 1025.5 1068.34H1042.9L1044 1064.54C1044.7 1062.54 1045 1058.84 1044.8 1056.34L1044.5 1051.84L1002.3 1051.54L960.1 1051.34L958.6 1053.54Z" fill="black"/>
<path d="M1192.2 1053.64C1190.3 1055.64 1189 1063.24 1180.5 1121.84C1175.3 1158.14 1170.8 1188.74 1170.5 1189.84C1169.7 1193.74 1171.5 1194.84 1178.4 1194.84C1182 1194.84 1185.4 1194.34 1186 1193.74C1186.7 1193.04 1188.9 1180.24 1191.1 1165.24C1193.2 1150.14 1195.2 1136.34 1195.5 1134.54L1196.1 1131.34H1203.3C1210.9 1131.34 1215.3 1133.04 1219.1 1137.64C1222 1141.04 1224.7 1151.04 1228.5 1172.74C1230.4 1183.74 1232.5 1193.24 1233 1193.74C1233.6 1194.34 1237 1194.84 1240.6 1194.84C1246 1194.84 1247.4 1194.44 1248.6 1192.84C1250.2 1190.64 1250.4 1192.04 1244.9 1162.94C1240.5 1140.14 1238.6 1133.84 1234.2 1128.44L1231.3 1124.74L1235.3 1122.84C1253.4 1114.04 1263.1 1086.44 1254.9 1067.44C1252.6 1061.84 1249.2 1058.44 1243.5 1055.44C1237.3 1052.24 1230.2 1051.34 1211.5 1051.34C1194.9 1051.34 1194.3 1051.44 1192.2 1053.64ZM1231.8 1070.64C1238.2 1074.14 1241 1082.54 1238.9 1092.44C1236.7 1102.64 1232.4 1108.44 1224 1112.24C1220.4 1113.84 1217.4 1114.34 1209.3 1114.34C1199.9 1114.34 1199 1114.14 1199 1112.44C1199 1111.44 1200.4 1101.24 1202 1089.84C1203.7 1078.44 1205 1068.84 1205 1068.64C1205 1068.34 1210.3 1068.34 1216.8 1068.54C1225.5 1068.84 1229.3 1069.34 1231.8 1070.64Z" fill="black"/>
<path d="M1457.1 1053.04C1455.9 1054.04 1454.5 1056.64 1454 1058.84C1453.6 1061.04 1449 1091.54 1443.9 1126.64C1435.1 1188.14 1434.8 1190.44 1436.5 1192.34C1438.2 1194.24 1439.7 1194.34 1456.1 1194.34C1477.2 1194.34 1486 1192.94 1496.7 1187.74C1505.6 1183.44 1516.4 1173.24 1521.9 1163.94C1526.7 1155.94 1531.5 1142.74 1534.1 1130.34C1537.1 1116.24 1537.4 1092.84 1534.7 1083.84C1529.2 1066.04 1519 1056.34 1502.1 1052.74C1497.9 1051.84 1489.1 1051.34 1477.4 1051.34C1461.6 1051.34 1458.9 1051.54 1457.1 1053.04ZM1501.7 1071.94C1508.4 1075.34 1513.9 1081.94 1516.5 1089.74C1519.1 1097.64 1519.6 1111.34 1517.5 1123.44C1514.2 1143.34 1508.7 1156.14 1499.8 1165.24C1490.7 1174.24 1481.7 1177.34 1463.9 1177.34C1455.5 1177.34 1454 1177.14 1454 1175.74C1454 1174.84 1457.4 1150.94 1461.5 1122.54C1465.6 1094.14 1469 1070.24 1469 1069.54C1469 1068.34 1471.3 1068.14 1482.5 1068.54C1494.9 1068.94 1496.4 1069.24 1501.7 1071.94Z" fill="black"/>
<path d="M1575 1053.34C1573.9 1054.44 1572.8 1056.34 1572.5 1057.54C1571.3 1063.04 1554 1184.94 1554 1188.24C1554 1190.24 1554.5 1192.44 1555.2 1193.14C1556.1 1194.04 1564.4 1194.34 1586.6 1194.34C1621.5 1194.34 1619.5 1194.94 1619.5 1184.44V1177.84L1595.6 1177.54L1571.8 1177.34L1572.4 1174.04C1572.9 1171.04 1579 1129.54 1579 1128.74C1579 1128.54 1588 1128.34 1599 1128.34C1618.6 1128.34 1619 1128.34 1620.4 1126.04C1621.2 1124.84 1622.2 1121.74 1622.5 1119.04C1623.7 1111.34 1623.7 1111.34 1601.4 1111.34C1583.8 1111.34 1582 1111.14 1582 1109.64C1582 1107.74 1586.8 1074.24 1587.6 1070.54L1588 1068.34H1611.5C1632.8 1068.34 1635 1068.14 1635.9 1066.54C1637.3 1063.94 1638.3 1055.84 1637.5 1053.44C1636.9 1051.34 1636.5 1051.34 1606.9 1051.34C1578.5 1051.34 1576.9 1051.44 1575 1053.34Z" fill="black"/>
<path d="M1807.2 1053.64C1805.2 1055.74 1804 1062.84 1795.5 1121.34C1790.3 1157.34 1786 1187.74 1786 1188.94C1786 1194.24 1786.7 1194.34 1819 1194.34H1849L1850.4 1192.04C1852.3 1188.94 1853.2 1181.64 1852 1179.34C1851 1177.44 1849.8 1177.34 1827.6 1177.34H1804.4L1807.9 1152.84L1811.3 1128.34H1831.1C1847.4 1128.34 1851.1 1128.04 1852.4 1126.84C1854.2 1125.04 1855.5 1117.34 1854.6 1113.84L1854 1111.34H1834C1823 1111.34 1814 1111.14 1814 1110.94C1814 1110.74 1815.4 1101.24 1817 1089.84C1818.7 1078.44 1820 1068.94 1820 1068.74C1820 1068.54 1830.6 1068.34 1843.6 1068.34H1867.1L1868.6 1064.74C1869.4 1062.74 1870 1059.04 1869.8 1056.54L1869.5 1051.84L1839.4 1051.54L1809.4 1051.34L1807.2 1053.64Z" fill="black"/>
<path d="M2144.7 1053.54C2142.1 1055.84 2141.9 1057.04 2132.5 1121.64C2127.3 1157.94 2123 1189.04 2123 1190.84C2123 1193.84 2123.3 1194.14 2126.6 1194.84C2130.7 1195.54 2137.7 1194.64 2138.6 1193.24C2139.1 1192.44 2147.9 1134.94 2148 1132.04C2148 1131.64 2151.2 1131.34 2155 1131.34C2166.9 1131.34 2171.9 1135.24 2175.4 1147.34C2176.3 1150.34 2178.6 1161.84 2180.5 1172.84C2182.5 1183.84 2184.4 1193.14 2184.9 1193.64C2186.2 1194.94 2192.6 1195.64 2196.4 1194.94C2202.5 1193.74 2202.6 1192.74 2198 1168.14C2193 1141.74 2191 1134.84 2186.6 1129.04L2183.3 1124.74L2187.3 1122.84C2198.2 1117.54 2206.7 1105.14 2209 1091.24C2212.2 1072.54 2206 1058.84 2192.1 1053.74C2188.5 1052.44 2182.9 1051.94 2167.4 1051.54C2147.5 1051.14 2147.3 1051.14 2144.7 1053.54ZM2184 1070.84C2189.4 1074.04 2191.5 1078.64 2191.4 1086.84C2191.3 1095.84 2188.3 1103.04 2182.4 1108.24C2176.9 1113.14 2172.4 1114.34 2160.6 1114.34C2152.1 1114.34 2151 1114.14 2151 1112.54C2151 1111.64 2152.4 1101.84 2154 1090.84C2155.6 1079.84 2157 1070.24 2157 1069.44C2157 1068.44 2159.4 1068.24 2168.8 1068.44C2178.3 1068.74 2181.1 1069.24 2184 1070.84Z" fill="black"/>
</mask>
<g mask="url(#mask0)">
<path d="M2559 203.5C2559 435.183 2055.99 623 1435.5 623C815.008 623 312 435.183 312 203.5C312 -28.1835 815.008 -216 1435.5 -216C2055.99 -216 2559 -28.1835 2559 203.5Z" fill="url(#paint0_linear)"/>
</g>
<defs>
<linearGradient id="paint0_linear" x1="1435.5" y1="-216" x2="1435.5" y2="623" gradientUnits="userSpaceOnUse">
<stop stop-color="white" stop-opacity="0"/>
<stop offset="1" stop-color="white" stop-opacity="0.28"/>
</linearGradient>
</defs>
</svg>
