<svg width="512" height="512" viewBox="0 0 512 512" fill="none" xmlns="http://www.w3.org/2000/svg">
<rect width="512" height="512" fill="#E5E5E5"/>
<g style="mix-blend-mode:luminosity" opacity="0.61">
<path d="M204.29 180.595L158.78 146.445L130.11 125.465C127.14 123.295 123.11 123.295 120.14 125.465L44.8 180.595C44.8 180.595 40.232 213.578 44.8 213.578H175.266V180.595H204.29Z" fill="#97DA7B"/>
<path d="M62.144 186.416L137.484 131.286C137.585 131.212 137.696 131.161 137.8 131.092L130.11 125.465C127.14 123.295 123.11 123.295 120.14 125.465L44.8 180.595C44.8 180.595 40.232 213.578 44.8 213.578H60.182C59.696 204.112 62.144 186.416 62.144 186.416Z" fill="#80D261"/>
<path d="M391.81 125.435C388.87 123.275 384.87 123.255 381.9 125.395L352.91 146.215L300.85 180.595V223.417H467.2V180.595L391.81 125.435Z" fill="#97DA7B"/>
<path d="M320.123 188.832L372.183 154.452L401.173 133.632C401.496 133.399 401.835 133.204 402.18 133.022L391.81 125.435C388.87 123.275 384.87 123.255 381.9 125.395L352.91 146.215L300.85 180.595V223.417H320.123V188.832Z" fill="#80D261"/>
<path d="M314.12 117.834V117.835L283.255 126.252L256 117.775L228.375 126.252L197.961 117.775L112.11 180.595V223.418H399.89V180.595L314.12 117.834Z" fill="#B77E74"/>
<path d="M228.375 126.252L197.961 117.775L112.11 180.595V223.418H150.226V192.509L249.729 119.7L228.375 126.252Z" fill="#AA6A5F"/>
<path d="M512 178.046V502.195H0V178.046H152.669H192.495H321.321H361.002H512Z" fill="#BBEC6C"/>
<path d="M314.12 117.835L285.77 129.105C284.1 129.765 282.26 129.835 280.55 129.315L258.43 122.515C256.92 122.055 255.31 122.055 253.8 122.515L231.69 129.315C229.98 129.835 228.14 129.765 226.47 129.105L197.96 117.775L243.77 84.2549C251.05 78.9249 260.95 78.9249 268.23 84.2549L314.12 117.835Z" fill="#E2DEE2"/>
<path d="M240.798 86.4299L197.961 117.775L226.47 129.105C228.14 129.765 229.98 129.835 231.69 129.315L240.14 126.716L281.886 96.1689C282.333 95.8419 282.789 95.5359 283.255 95.2489L270.283 85.7569L268.23 84.2549C264.59 81.5899 260.295 80.2579 256 80.2579C251.705 80.2579 247.41 81.5909 243.77 84.2549L240.798 86.4299Z" fill="#CBC4CC"/>
<path d="M268.23 84.2549C260.95 78.9249 251.05 78.9249 243.77 84.2549L218.048 103.076L231.659 108.485C233.329 109.145 235.169 109.215 236.879 108.695L258.989 101.895C260.499 101.435 262.109 101.435 263.619 101.895L285.739 108.695C287.449 109.215 289.289 109.145 290.959 108.485L297.687 105.81L268.23 84.2549Z" fill="#F3F0F3"/>
<path d="M290.284 178.046L343.35 502.195H164.482L217.549 178.046H290.284Z" fill="#A79BA7"/>
<path d="M264.914 467.459H247.085C244.799 467.459 242.981 465.54 243.106 463.257L244.839 431.434C244.954 429.32 246.702 427.666 248.818 427.666H263.18C265.297 427.666 267.044 429.321 267.159 431.434L268.892 463.257C269.018 465.539 267.2 467.459 264.914 467.459Z" fill="#FEDF30"/>
<path d="M263.226 396.517H248.774C246.921 396.517 245.448 394.961 245.548 393.111L246.953 367.315C247.046 365.602 248.463 364.26 250.179 364.26H261.821C263.537 364.26 264.953 365.601 265.047 367.315L266.452 393.111C266.552 394.962 265.079 396.517 263.226 396.517Z" fill="#FEE45A"/>
<path d="M261.857 336.861H250.142C248.64 336.861 247.446 335.6 247.527 334.1L248.666 313.19C248.742 311.801 249.89 310.714 251.281 310.714H260.718C262.109 310.714 263.257 311.801 263.333 313.19L264.472 334.1C264.554 335.6 263.359 336.861 261.857 336.861Z" fill="#FEE97D"/>
<path d="M260.458 284.194H251.542C250.399 284.194 249.49 283.234 249.552 282.093L250.419 266.178C250.477 265.121 251.351 264.293 252.409 264.293H259.592C260.651 264.293 261.525 265.121 261.582 266.178L262.449 282.093C262.511 283.234 261.602 284.194 260.458 284.194Z" fill="#FEF0AE"/>
<path d="M259.614 243.398H252.386C251.459 243.398 250.722 242.62 250.773 241.695L251.476 228.794C251.523 227.937 252.231 227.266 253.089 227.266H258.911C259.769 227.266 260.478 227.937 260.524 228.794L261.227 241.695C261.277 242.62 260.541 243.398 259.614 243.398Z" fill="#FFF5C6"/>
<path d="M258.503 210.404H253.498C252.856 210.404 252.346 209.865 252.381 209.224L252.868 200.29C252.9 199.697 253.391 199.232 253.985 199.232H258.017C258.611 199.232 259.102 199.697 259.134 200.29L259.621 209.224C259.655 209.866 259.144 210.404 258.503 210.404Z" fill="#FFF9E2"/>
<path d="M268.23 84.2549C260.95 78.9249 251.05 78.9249 243.77 84.2549L218.048 103.076L231.659 108.485C233.329 109.145 235.169 109.215 236.879 108.695L258.989 101.895C260.499 101.435 262.109 101.435 263.619 101.895L270.971 104.155L281.886 96.1679C282.333 95.8409 282.789 95.5349 283.255 95.2479L268.23 84.2549Z" fill="#E2DEE2"/>
<path d="M125.474 301.881C121.331 301.881 117.974 298.523 117.974 294.381V261.36C117.974 257.218 121.331 253.86 125.474 253.86C129.617 253.86 132.974 257.218 132.974 261.36V294.381C132.974 298.523 129.616 301.881 125.474 301.881Z" fill="#DC8758"/>
<path d="M33.31 329.766C29.167 329.766 25.81 326.408 25.81 322.266V291.034C25.81 286.892 29.167 283.534 33.31 283.534C37.453 283.534 40.81 286.892 40.81 291.034V322.266C40.81 326.408 37.453 329.766 33.31 329.766Z" fill="#DC8758"/>
<path d="M85.972 382.803C81.829 382.803 78.472 379.445 78.472 375.303V344.072C78.472 339.93 81.829 336.572 85.972 336.572C90.115 336.572 93.472 339.93 93.472 344.072V375.303C93.472 379.445 90.114 382.803 85.972 382.803Z" fill="#DC8758"/>
<path d="M33.31 450.305C29.167 450.305 25.81 446.947 25.81 442.805V413.764C25.81 409.622 29.167 406.264 33.31 406.264C37.453 406.264 40.81 409.622 40.81 413.764V442.805C40.81 446.947 37.453 450.305 33.31 450.305Z" fill="#DC8758"/>
<path d="M121.379 502.173C117.236 502.173 113.879 498.815 113.879 494.673V453.531C113.879 449.389 117.236 446.031 121.379 446.031C125.522 446.031 128.879 449.389 128.879 453.531V494.673C128.879 498.815 125.521 502.173 121.379 502.173Z" fill="#DC8758"/>
<path d="M125.473 272.565C115.584 272.565 107.568 264.549 107.568 254.66V238.373C107.568 228.484 115.584 220.468 125.473 220.468C135.362 220.468 143.378 228.484 143.378 238.373V254.66C143.378 264.549 135.362 272.565 125.473 272.565Z" fill="#57BE92"/>
<path d="M33.311 303.034C24.594 303.034 17.527 295.967 17.527 287.25V272.892C17.527 264.175 24.594 257.108 33.311 257.108C42.028 257.108 49.095 264.175 49.095 272.892V287.25C49.095 295.967 42.028 303.034 33.311 303.034Z" fill="#57BE92"/>
<path d="M85.971 356.071C77.254 356.071 70.187 349.004 70.187 340.287V325.93C70.187 317.213 77.254 310.146 85.971 310.146C94.688 310.146 101.755 317.213 101.755 325.93V340.288C101.756 349.005 94.689 356.071 85.971 356.071Z" fill="#57BE92"/>
<path d="M33.311 423.573C24.594 423.573 17.527 416.506 17.527 407.789V393.431C17.527 384.714 24.594 377.647 33.311 377.647C42.028 377.647 49.095 384.714 49.095 393.431V407.789C49.095 416.506 42.028 423.573 33.311 423.573Z" fill="#57BE92"/>
<path d="M121.378 465.531C109.981 465.531 100.743 456.292 100.743 444.896V419.886C100.743 408.49 109.982 399.251 121.378 399.251C132.774 399.251 142.013 408.49 142.013 419.886V444.896C142.014 456.292 132.775 465.531 121.378 465.531Z" fill="#57BE92"/>
<path d="M386.526 301.881C382.383 301.881 379.026 298.523 379.026 294.381V258.36C379.026 254.218 382.383 250.86 386.526 250.86C390.669 250.86 394.026 254.218 394.026 258.36V294.381C394.026 298.523 390.669 301.881 386.526 301.881Z" fill="#DC8758"/>
<path d="M478.689 329.766C474.546 329.766 471.189 326.408 471.189 322.266V288.034C471.189 283.892 474.546 280.534 478.689 280.534C482.832 280.534 486.189 283.892 486.189 288.034V322.266C486.189 326.408 482.832 329.766 478.689 329.766Z" fill="#DC8758"/>
<path d="M426.028 382.803C421.885 382.803 418.528 379.445 418.528 375.303V341.072C418.528 336.93 421.885 333.572 426.028 333.572C430.171 333.572 433.528 336.93 433.528 341.072V375.303C433.528 379.445 430.171 382.803 426.028 382.803Z" fill="#DC8758"/>
<path d="M478.689 450.305C474.546 450.305 471.189 446.947 471.189 442.805V410.764C471.189 406.622 474.546 403.264 478.689 403.264C482.832 403.264 486.189 406.622 486.189 410.764V442.805C486.189 446.947 482.832 450.305 478.689 450.305Z" fill="#DC8758"/>
<path d="M390.621 502.173C386.478 502.173 383.121 498.815 383.121 494.673V450.531C383.121 446.389 386.478 443.031 390.621 443.031C394.764 443.031 398.121 446.389 398.121 450.531V494.673C398.121 498.815 394.764 502.173 390.621 502.173Z" fill="#DC8758"/>
<path d="M355.42 9.80493H427.804C438.231 9.80493 446.684 18.2579 446.684 28.6849C446.684 32.6109 445.481 36.2499 443.427 39.2659C442.074 41.2529 443.586 43.9469 445.99 43.9469H450.725C460.962 43.9469 469.681 51.9079 470.045 62.1379C470.427 72.8789 461.833 81.7059 451.178 81.7059H384.29C373.708 81.7059 364.718 73.0459 364.916 62.4659C364.987 58.6729 366.181 55.1599 368.177 52.2349C369.529 50.2529 368.044 47.5639 365.645 47.5639H355.42C344.993 47.5639 336.54 39.1109 336.54 28.6839C336.54 18.2579 344.993 9.80493 355.42 9.80493Z" fill="#DFF6FD"/>
<path d="M408.674 62.096C398.092 62.096 389.102 53.436 389.3 42.856C389.371 39.063 390.565 35.55 392.561 32.625C393.913 30.643 392.428 27.954 390.029 27.954H379.804C369.624 27.954 361.348 19.89 360.961 9.80396H355.42C344.993 9.80396 336.54 18.257 336.54 28.684C336.54 39.111 344.993 47.564 355.42 47.564H365.645C368.044 47.564 369.53 50.252 368.177 52.235C366.182 55.16 364.988 58.674 364.916 62.466C364.717 73.046 373.708 81.706 384.29 81.706H451.177C461.833 81.706 470.427 72.879 470.045 62.138C470.045 62.124 470.042 62.111 470.041 62.096H408.674Z" fill="#C8EFFE"/>
<path d="M178.012 48.2009H241.285C251.712 48.2009 260.165 39.7479 260.165 29.3209C260.165 18.8939 251.712 10.4409 241.285 10.4409H178.012C167.585 10.4409 159.132 18.8939 159.132 29.3209C159.132 39.7479 167.585 48.2009 178.012 48.2009Z" fill="#DFF6FD"/>
<path d="M214.275 32.2199C203.848 32.2199 195.395 23.7669 195.395 13.3399C195.395 12.3509 195.494 11.3879 195.64 10.4409H178.012C167.585 10.4409 159.132 18.8939 159.132 29.3209C159.132 39.7479 167.585 48.2009 178.012 48.2009H241.285C250.723 48.2009 258.521 41.2679 259.92 32.2209H214.275V32.2199Z" fill="#C8EFFE"/>
<path d="M44.765 83.9619H67.545C77.972 83.9619 86.425 75.5089 86.425 65.0819C86.425 54.6549 77.972 46.2019 67.545 46.2019H44.765C34.338 46.2019 25.885 54.6549 25.885 65.0819C25.885 75.5099 34.338 83.9619 44.765 83.9619Z" fill="#DFF6FD"/>
<path d="M386.527 272.565C396.416 272.565 404.432 264.549 404.432 254.66V238.373C404.432 228.484 396.416 220.468 386.527 220.468C376.638 220.468 368.622 228.484 368.622 238.373V254.66C368.621 264.549 376.638 272.565 386.527 272.565Z" fill="#57BE92"/>
<path d="M478.689 303.034C487.406 303.034 494.473 295.967 494.473 287.25V272.892C494.473 264.175 487.406 257.108 478.689 257.108C469.972 257.108 462.905 264.175 462.905 272.892V287.25C462.905 295.967 469.972 303.034 478.689 303.034Z" fill="#57BE92"/>
<path d="M426.029 356.071C434.746 356.071 441.813 349.004 441.813 340.287V325.93C441.813 317.213 434.746 310.146 426.029 310.146C417.312 310.146 410.245 317.213 410.245 325.93V340.288C410.244 349.005 417.311 356.071 426.029 356.071Z" fill="#57BE92"/>
<path d="M478.689 423.573C487.406 423.573 494.473 416.506 494.473 407.789V393.431C494.473 384.714 487.406 377.647 478.689 377.647C469.972 377.647 462.905 384.714 462.905 393.431V407.789C462.905 416.506 469.972 423.573 478.689 423.573Z" fill="#57BE92"/>
<path d="M390.621 465.531C402.018 465.531 411.256 456.292 411.256 444.896V419.886C411.256 408.49 402.017 399.251 390.621 399.251C379.225 399.251 369.986 408.49 369.986 419.886V444.896C369.986 456.292 379.225 465.531 390.621 465.531Z" fill="#57BE92"/>
</g>
<rect width="512" height="88" fill="url(#paint0_linear)"/>
<rect width="512" height="267" transform="matrix(1 0 0 -1 0 512)" fill="url(#paint1_linear)"/>
<defs>
<linearGradient id="paint0_linear" x1="256" y1="0" x2="256" y2="88" gradientUnits="userSpaceOnUse">
<stop stop-color="white"/>
<stop offset="1" stop-color="#E5E5E5" stop-opacity="0"/>
</linearGradient>
<linearGradient id="paint1_linear" x1="256" y1="0" x2="256" y2="267" gradientUnits="userSpaceOnUse">
<stop offset="0.0729167" stop-color="white"/>
<stop offset="1" stop-color="#E5E5E5" stop-opacity="0"/>
</linearGradient>
</defs>
</svg>
