<svg width="512" height="494" viewBox="0 0 512 494" fill="none" xmlns="http://www.w3.org/2000/svg">
<rect width="512" height="494" fill="#E5E5E5"/>
<g style="mix-blend-mode:luminosity" opacity="0.61">
<path d="M204.29 171.595L158.78 137.445L130.11 116.465C127.14 114.295 123.11 114.295 120.14 116.465L44.8 171.595C44.8 171.595 40.232 204.578 44.8 204.578H175.266V171.595H204.29Z" fill="#97DA7B"/>
<path d="M62.144 177.416L137.484 122.286C137.585 122.212 137.696 122.161 137.8 122.092L130.11 116.465C127.14 114.295 123.11 114.295 120.14 116.465L44.8 171.595C44.8 171.595 40.232 204.578 44.8 204.578H60.182C59.696 195.112 62.144 177.416 62.144 177.416V177.416Z" fill="#80D261"/>
<path d="M391.81 116.435C388.87 114.275 384.87 114.255 381.9 116.395L352.91 137.215L300.85 171.595V214.417H467.2V171.595L391.81 116.435Z" fill="#97DA7B"/>
<path d="M320.123 179.832L372.183 145.452L401.173 124.632C401.496 124.399 401.835 124.204 402.18 124.022L391.81 116.435C388.87 114.275 384.87 114.255 381.9 116.395L352.91 137.215L300.85 171.595V214.417H320.123V179.832Z" fill="#80D261"/>
<path d="M314.12 108.834V108.835L283.255 117.252L256 108.775L228.375 117.252L197.961 108.775L112.11 171.595V214.418H399.89V171.595L314.12 108.834Z" fill="#B77E74"/>
<path d="M228.375 117.252L197.961 108.775L112.11 171.595V214.418H150.226V183.509L249.729 110.7L228.375 117.252Z" fill="#AA6A5F"/>
<path d="M512 169.046V493.195H0V169.046H152.669H192.495H321.321H361.002H512Z" fill="#BBEC6C"/>
<path d="M314.12 108.835L285.77 120.105C284.1 120.765 282.26 120.835 280.55 120.315L258.43 113.515C256.92 113.055 255.31 113.055 253.8 113.515L231.69 120.315C229.98 120.835 228.14 120.765 226.47 120.105L197.96 108.775L243.77 75.2549C251.05 69.9249 260.95 69.9249 268.23 75.2549L314.12 108.835Z" fill="#E2DEE2"/>
<path d="M240.798 77.4299L197.961 108.775L226.47 120.105C228.14 120.765 229.98 120.835 231.69 120.315L240.14 117.716L281.886 87.1689C282.333 86.8419 282.789 86.5359 283.255 86.2489L270.283 76.7569L268.23 75.2549C264.59 72.5899 260.295 71.2579 256 71.2579C251.705 71.2579 247.41 72.5909 243.77 75.2549L240.798 77.4299Z" fill="#CBC4CC"/>
<path d="M268.23 75.2549C260.95 69.9249 251.05 69.9249 243.77 75.2549L218.048 94.0759L231.659 99.4849C233.329 100.145 235.169 100.215 236.879 99.6949L258.989 92.8949C260.499 92.4349 262.109 92.4349 263.619 92.8949L285.739 99.6949C287.449 100.215 289.289 100.145 290.959 99.4849L297.687 96.8099L268.23 75.2549Z" fill="#F3F0F3"/>
<path d="M290.284 169.046L343.35 493.195H164.482L217.549 169.046H290.284Z" fill="#A79BA7"/>
<path d="M264.914 458.459H247.085C244.799 458.459 242.981 456.54 243.106 454.257L244.839 422.434C244.954 420.32 246.702 418.666 248.818 418.666H263.18C265.297 418.666 267.044 420.321 267.159 422.434L268.892 454.257C269.018 456.539 267.2 458.459 264.914 458.459Z" fill="#FEDF30"/>
<path d="M263.226 387.517H248.774C246.921 387.517 245.448 385.961 245.548 384.111L246.953 358.315C247.046 356.602 248.463 355.26 250.179 355.26H261.821C263.537 355.26 264.953 356.601 265.047 358.315L266.452 384.111C266.552 385.962 265.079 387.517 263.226 387.517Z" fill="#FEE45A"/>
<path d="M261.857 327.861H250.142C248.64 327.861 247.446 326.6 247.527 325.1L248.666 304.19C248.742 302.801 249.89 301.714 251.281 301.714H260.718C262.109 301.714 263.257 302.801 263.333 304.19L264.472 325.1C264.554 326.6 263.359 327.861 261.857 327.861Z" fill="#FEE97D"/>
<path d="M260.458 275.194H251.542C250.399 275.194 249.49 274.234 249.552 273.093L250.419 257.178C250.477 256.121 251.351 255.293 252.409 255.293H259.592C260.651 255.293 261.525 256.121 261.582 257.178L262.449 273.093C262.511 274.234 261.602 275.194 260.458 275.194V275.194Z" fill="#FEF0AE"/>
<path d="M259.614 234.398H252.386C251.459 234.398 250.722 233.62 250.773 232.695L251.476 219.794C251.523 218.937 252.231 218.266 253.089 218.266H258.911C259.769 218.266 260.478 218.937 260.524 219.794L261.227 232.695C261.277 233.62 260.541 234.398 259.614 234.398V234.398Z" fill="#FFF5C6"/>
<path d="M258.503 201.404H253.498C252.856 201.404 252.346 200.865 252.381 200.224L252.868 191.29C252.9 190.697 253.391 190.232 253.985 190.232H258.017C258.611 190.232 259.102 190.697 259.134 191.29L259.621 200.224C259.655 200.866 259.144 201.404 258.503 201.404V201.404Z" fill="#FFF9E2"/>
<path d="M268.23 75.2549C260.95 69.9249 251.05 69.9249 243.77 75.2549L218.048 94.0759L231.659 99.4849C233.329 100.145 235.169 100.215 236.879 99.6949L258.989 92.8949C260.499 92.4349 262.109 92.4349 263.619 92.8949L270.971 95.1549L281.886 87.1679C282.333 86.8409 282.789 86.5349 283.255 86.2479L268.23 75.2549Z" fill="#E2DEE2"/>
<path d="M125.474 292.881C121.331 292.881 117.974 289.523 117.974 285.381V252.36C117.974 248.218 121.331 244.86 125.474 244.86C129.617 244.86 132.974 248.218 132.974 252.36V285.381C132.974 289.523 129.616 292.881 125.474 292.881V292.881Z" fill="#DC8758"/>
<path d="M33.31 320.766C29.167 320.766 25.81 317.408 25.81 313.266V282.034C25.81 277.892 29.167 274.534 33.31 274.534C37.453 274.534 40.81 277.892 40.81 282.034V313.266C40.81 317.408 37.453 320.766 33.31 320.766V320.766Z" fill="#DC8758"/>
<path d="M85.972 373.803C81.829 373.803 78.472 370.445 78.472 366.303V335.072C78.472 330.93 81.829 327.572 85.972 327.572C90.115 327.572 93.472 330.93 93.472 335.072V366.303C93.472 370.445 90.114 373.803 85.972 373.803Z" fill="#DC8758"/>
<path d="M33.31 441.305C29.167 441.305 25.81 437.947 25.81 433.805V404.764C25.81 400.622 29.167 397.264 33.31 397.264C37.453 397.264 40.81 400.622 40.81 404.764V433.805C40.81 437.947 37.453 441.305 33.31 441.305Z" fill="#DC8758"/>
<path d="M121.379 493.173C117.236 493.173 113.879 489.815 113.879 485.673V444.531C113.879 440.389 117.236 437.031 121.379 437.031C125.522 437.031 128.879 440.389 128.879 444.531V485.673C128.879 489.815 125.521 493.173 121.379 493.173V493.173Z" fill="#DC8758"/>
<path d="M125.473 263.565C115.584 263.565 107.568 255.549 107.568 245.66V229.373C107.568 219.484 115.584 211.468 125.473 211.468C135.362 211.468 143.378 219.484 143.378 229.373V245.66C143.378 255.549 135.362 263.565 125.473 263.565V263.565Z" fill="#57BE92"/>
<path d="M33.311 294.034C24.594 294.034 17.527 286.967 17.527 278.25V263.892C17.527 255.175 24.594 248.108 33.311 248.108C42.028 248.108 49.095 255.175 49.095 263.892V278.25C49.095 286.967 42.028 294.034 33.311 294.034Z" fill="#57BE92"/>
<path d="M85.971 347.071C77.254 347.071 70.187 340.004 70.187 331.287V316.93C70.187 308.213 77.254 301.146 85.971 301.146C94.688 301.146 101.755 308.213 101.755 316.93V331.288C101.756 340.005 94.689 347.071 85.971 347.071V347.071Z" fill="#57BE92"/>
<path d="M33.311 414.573C24.594 414.573 17.527 407.506 17.527 398.789V384.431C17.527 375.714 24.594 368.647 33.311 368.647C42.028 368.647 49.095 375.714 49.095 384.431V398.789C49.095 407.506 42.028 414.573 33.311 414.573Z" fill="#57BE92"/>
<path d="M121.378 456.531C109.981 456.531 100.743 447.292 100.743 435.896V410.886C100.743 399.49 109.982 390.251 121.378 390.251C132.774 390.251 142.013 399.49 142.013 410.886V435.896C142.014 447.292 132.775 456.531 121.378 456.531Z" fill="#57BE92"/>
<path d="M386.526 292.881C382.383 292.881 379.026 289.523 379.026 285.381V249.36C379.026 245.218 382.383 241.86 386.526 241.86C390.669 241.86 394.026 245.218 394.026 249.36V285.381C394.026 289.523 390.669 292.881 386.526 292.881Z" fill="#DC8758"/>
<path d="M478.689 320.766C474.546 320.766 471.189 317.408 471.189 313.266V279.034C471.189 274.892 474.546 271.534 478.689 271.534C482.832 271.534 486.189 274.892 486.189 279.034V313.266C486.189 317.408 482.832 320.766 478.689 320.766V320.766Z" fill="#DC8758"/>
<path d="M426.028 373.803C421.885 373.803 418.528 370.445 418.528 366.303V332.072C418.528 327.93 421.885 324.572 426.028 324.572C430.171 324.572 433.528 327.93 433.528 332.072V366.303C433.528 370.445 430.171 373.803 426.028 373.803Z" fill="#DC8758"/>
<path d="M478.689 441.305C474.546 441.305 471.189 437.947 471.189 433.805V401.764C471.189 397.622 474.546 394.264 478.689 394.264C482.832 394.264 486.189 397.622 486.189 401.764V433.805C486.189 437.947 482.832 441.305 478.689 441.305Z" fill="#DC8758"/>
<path d="M390.621 493.173C386.478 493.173 383.121 489.815 383.121 485.673V441.531C383.121 437.389 386.478 434.031 390.621 434.031C394.764 434.031 398.121 437.389 398.121 441.531V485.673C398.121 489.815 394.764 493.173 390.621 493.173Z" fill="#DC8758"/>
<path d="M355.42 0.804932H427.804C438.231 0.804932 446.684 9.25793 446.684 19.6849C446.684 23.6109 445.481 27.2499 443.427 30.2659C442.074 32.2529 443.586 34.9469 445.99 34.9469H450.725C460.962 34.9469 469.681 42.9079 470.045 53.1379C470.427 63.8789 461.833 72.7059 451.178 72.7059H384.29C373.708 72.7059 364.718 64.0459 364.916 53.4659C364.987 49.6729 366.181 46.1599 368.177 43.2349C369.529 41.2529 368.044 38.5639 365.645 38.5639H355.42C344.993 38.5639 336.54 30.1109 336.54 19.6839C336.54 9.25793 344.993 0.804932 355.42 0.804932V0.804932Z" fill="#DFF6FD"/>
<path d="M408.674 53.096C398.092 53.096 389.102 44.436 389.3 33.856C389.371 30.063 390.565 26.55 392.561 23.625C393.913 21.643 392.428 18.954 390.029 18.954H379.804C369.624 18.954 361.348 10.89 360.961 0.803955H355.42C344.993 0.803955 336.54 9.25696 336.54 19.684C336.54 30.111 344.993 38.564 355.42 38.564H365.645C368.044 38.564 369.53 41.252 368.177 43.235C366.182 46.16 364.988 49.674 364.916 53.466C364.717 64.046 373.708 72.706 384.29 72.706H451.177C461.833 72.706 470.427 63.879 470.045 53.138C470.045 53.124 470.042 53.111 470.041 53.096H408.674Z" fill="#C8EFFE"/>
<path d="M178.012 39.2009H241.285C251.712 39.2009 260.165 30.7479 260.165 20.3209C260.165 9.89392 251.712 1.44092 241.285 1.44092H178.012C167.585 1.44092 159.132 9.89392 159.132 20.3209C159.132 30.7479 167.585 39.2009 178.012 39.2009V39.2009Z" fill="#DFF6FD"/>
<path d="M214.275 23.2199C203.848 23.2199 195.395 14.7669 195.395 4.33992C195.395 3.35092 195.494 2.38792 195.64 1.44092H178.012C167.585 1.44092 159.132 9.89392 159.132 20.3209C159.132 30.7479 167.585 39.2009 178.012 39.2009H241.285C250.723 39.2009 258.521 32.2679 259.92 23.2209H214.275V23.2199Z" fill="#C8EFFE"/>
<path d="M44.765 74.9619H67.545C77.972 74.9619 86.425 66.5089 86.425 56.0819C86.425 45.6549 77.972 37.2019 67.545 37.2019H44.765C34.338 37.2019 25.885 45.6549 25.885 56.0819C25.885 66.5099 34.338 74.9619 44.765 74.9619Z" fill="#DFF6FD"/>
<path d="M386.527 263.565C396.416 263.565 404.432 255.549 404.432 245.66V229.373C404.432 219.484 396.416 211.468 386.527 211.468C376.638 211.468 368.622 219.484 368.622 229.373V245.66C368.621 255.549 376.638 263.565 386.527 263.565V263.565Z" fill="#57BE92"/>
<path d="M478.689 294.034C487.406 294.034 494.473 286.967 494.473 278.25V263.892C494.473 255.175 487.406 248.108 478.689 248.108C469.972 248.108 462.905 255.175 462.905 263.892V278.25C462.905 286.967 469.972 294.034 478.689 294.034Z" fill="#57BE92"/>
<path d="M426.029 347.071C434.746 347.071 441.813 340.004 441.813 331.287V316.93C441.813 308.213 434.746 301.146 426.029 301.146C417.312 301.146 410.245 308.213 410.245 316.93V331.288C410.244 340.005 417.311 347.071 426.029 347.071V347.071Z" fill="#57BE92"/>
<path d="M478.689 414.573C487.406 414.573 494.473 407.506 494.473 398.789V384.431C494.473 375.714 487.406 368.647 478.689 368.647C469.972 368.647 462.905 375.714 462.905 384.431V398.789C462.905 407.506 469.972 414.573 478.689 414.573Z" fill="#57BE92"/>
<path d="M390.621 456.531C402.018 456.531 411.256 447.292 411.256 435.896V410.886C411.256 399.49 402.017 390.251 390.621 390.251C379.225 390.251 369.986 399.49 369.986 410.886V435.896C369.986 447.292 379.225 456.531 390.621 456.531Z" fill="#57BE92"/>
</g>
</svg>
